<svg width="42" height="48" viewBox="0 0 42 48" fill="none" xmlns="http://www.w3.org/2000/svg">
<path d="M17.2756 13.0318C15.884 10.9446 14.459 9.18422 13.1738 7.96645C12.5361 7.33186 11.8091 6.79679 11.0166 6.37872C10.3573 6.05809 9.3151 5.74671 8.33675 6.31706C7.22167 6.97373 7.03937 8.25933 7.03025 9.0794C7.02114 10.0166 7.22471 11.1265 7.55589 12.298C8.15141 14.416 9.24522 17.0088 10.7006 19.7033L0.746924 29.8031C-0.0947024 30.6571 -0.0703954 31.8255 0.084561 32.6333C0.251671 33.5058 0.652734 34.4615 1.17837 35.4172C2.23572 37.3502 3.97366 39.6131 6.11875 41.7928C8.26687 43.9724 10.497 45.7328 12.4021 46.8057C13.344 47.339 14.2859 47.746 15.1457 47.9156C15.9418 48.0697 17.0903 48.0975 17.9349 47.2435L34.9953 29.9326C35.3539 30.7249 35.2749 31.5111 35.1472 32.8275C35.0561 33.7277 34.9406 34.8777 34.9254 36.4531V36.8323H34.9346C34.9982 37.6026 35.3448 38.3206 35.9056 38.8438C36.4664 39.3671 37.2004 39.6575 37.9623 39.6575C38.7241 39.6575 39.4582 39.3671 40.019 38.8438C40.5798 38.3206 40.9263 37.6026 40.99 36.8323H40.9991V36.6566C41.002 36.5362 40.9979 36.4157 40.987 36.2959C40.8199 32.4421 38.8601 27.8547 35.3356 25.524C35.1466 25.0662 34.9326 24.6195 34.6945 24.1859C33.6341 22.256 31.8992 19.9931 29.7511 17.8134C27.603 15.6338 25.3728 13.8703 23.4678 12.7975C22.5259 12.2672 21.584 11.8602 20.7241 11.6876C19.9281 11.5334 18.7796 11.5088 17.9349 12.3628L17.2756 13.0287V13.0318ZM11.1017 10.217C12.2593 11.3146 13.666 13.0595 15.0849 15.2484L12.9459 17.4219C11.7853 15.1806 10.9406 13.0996 10.4758 11.4471C10.2721 10.7715 10.1387 10.0761 10.0777 9.37228C10.3542 9.56034 10.6976 9.83473 11.1017 10.217ZM12.2988 22.441C13.9395 25.0677 15.6622 27.272 17.1814 28.7087C17.3275 28.8467 17.4989 28.9542 17.6858 29.0251C17.8728 29.0959 18.0717 29.1287 18.2712 29.1215C18.4707 29.1144 18.6668 29.0674 18.8484 28.9834C19.03 28.8993 19.1935 28.7798 19.3295 28.6316C19.4656 28.4834 19.5716 28.3095 19.6414 28.1198C19.7112 27.93 19.7435 27.7282 19.7365 27.5258C19.7294 27.3234 19.6831 27.1244 19.6003 26.9401C19.5174 26.7559 19.3996 26.59 19.2536 26.4519C17.8772 25.1509 16.1636 22.9497 14.5016 20.2028L17.8073 16.8485C17.9714 17.2184 18.1567 17.5976 18.3633 17.9738C19.4237 19.9068 21.1586 22.1697 23.3068 24.3493C25.4518 26.529 27.682 28.2894 29.5901 29.3623C29.9608 29.5719 30.3314 29.763 30.6991 29.9264L15.9296 44.9158C15.8602 44.9098 15.7912 44.8995 15.723 44.885C15.3068 44.8018 14.6839 44.5644 13.8757 44.1081C12.2836 43.2079 10.2722 41.6417 8.26687 39.607C6.26155 37.5722 4.71806 35.5374 3.83086 33.9158C3.38422 33.0988 3.14723 32.4668 3.06823 32.0444C3.05398 31.9752 3.04383 31.9052 3.03785 31.8348L12.2988 22.441ZM21.0189 16.4754C20.7044 15.9323 20.4584 15.3512 20.2866 14.7459C20.6968 14.8476 21.2711 15.085 21.9942 15.4889C23.5863 16.3891 25.5977 17.9553 27.603 19.99C28.9703 21.3774 30.1248 22.7678 30.9999 24.0287C29.9125 23.9531 28.82 24.0477 27.761 24.3093C26.9596 23.6321 26.189 22.9182 25.4518 22.1697C23.4465 20.1349 21.9061 18.094 21.0219 16.4754H21.0189Z" fill="black"/>
<path d="M34.5 13V7.5M34.5 7.5V2M34.5 7.5H40M34.5 7.5H29" stroke="black" stroke-width="2.5" stroke-linecap="round"/>
</svg>
