<svg width="43" height="49" viewBox="0 0 43 49" fill="none" xmlns="http://www.w3.org/2000/svg">
<path d="M9.44 32.53H25.76M3.95 8.01C3.42828 8.02305 2.93233 8.23951 2.568 8.61317C2.20367 8.98684 1.99984 9.48812 2 10.01V45.11C1.99984 45.6319 2.20367 46.1332 2.568 46.5068C2.93233 46.8805 3.42828 47.097 3.95 47.11H31.25C31.7804 47.11 32.2891 46.8993 32.6642 46.5242C33.0393 46.1491 33.25 45.6404 33.25 45.11V18H25.25C24.7283 17.987 24.2323 17.7705 23.868 17.3968C23.5037 17.0232 23.2998 16.5219 23.3 16V8L3.95 8.01ZM23.21 8.01L33.2 18L23.21 8.01ZM9.44 26.48H25.76H9.44ZM9.44 38.58H25.76H9.44Z" stroke="black" stroke-width="2.5" stroke-linecap="round" stroke-linejoin="round"/>
<path d="M35.5 13V7.5M35.5 7.5V2M35.5 7.5H41M35.5 7.5H30" stroke="black" stroke-width="2.5" stroke-linecap="round"/>
</svg>
