<svg width="33" height="33" viewBox="0 0 33 33" fill="none" xmlns="http://www.w3.org/2000/svg">
<path d="M28.4375 2.03125C28.9762 2.03125 29.4929 2.24526 29.8738 2.62619C30.2547 3.00712 30.4688 3.52378 30.4688 4.0625V28.4375C30.4688 28.9762 30.2547 29.4929 29.8738 29.8738C29.4929 30.2547 28.9762 30.4688 28.4375 30.4688H4.0625C3.52378 30.4688 3.00712 30.2547 2.62619 29.8738C2.24526 29.4929 2.03125 28.9762 2.03125 28.4375V4.0625C2.03125 3.52378 2.24526 3.00712 2.62619 2.62619C3.00712 2.24526 3.52378 2.03125 4.0625 2.03125H28.4375ZM4.0625 0C2.98506 0 1.95175 0.428012 1.18988 1.18988C0.428012 1.95175 0 2.98506 0 4.0625L0 28.4375C0 29.5149 0.428012 30.5483 1.18988 31.3101C1.95175 32.072 2.98506 32.5 4.0625 32.5H28.4375C29.5149 32.5 30.5483 32.072 31.3101 31.3101C32.072 30.5483 32.5 29.5149 32.5 28.4375V4.0625C32.5 2.98506 32.072 1.95175 31.3101 1.18988C30.5483 0.428012 29.5149 0 28.4375 0L4.0625 0Z" fill="black"/>
<path d="M22.2828 10.0953C22.5671 9.81351 22.9508 9.65492 23.3511 9.65381C23.7514 9.65271 24.136 9.80918 24.4218 10.0894C24.7076 10.3696 24.8717 10.7511 24.8785 11.1513C24.8853 11.5515 24.7344 11.9383 24.4583 12.2281L16.3495 22.3641C16.2101 22.5142 16.0419 22.6346 15.855 22.7182C15.668 22.8018 15.4661 22.8469 15.2613 22.8507C15.0565 22.8545 14.853 22.8169 14.6631 22.7403C14.4731 22.6637 14.3006 22.5495 14.1558 22.4047L8.78309 17.03C8.63342 16.8905 8.51337 16.7223 8.4301 16.5355C8.34684 16.3486 8.30206 16.1469 8.29845 15.9423C8.29485 15.7377 8.33247 15.5346 8.4091 15.3449C8.48572 15.1552 8.59976 14.9829 8.74442 14.8382C8.88909 14.6935 9.0614 14.5795 9.2511 14.5029C9.44079 14.4262 9.64398 14.3886 9.84853 14.3922C10.0531 14.3958 10.2548 14.4406 10.4417 14.5239C10.6286 14.6071 10.7967 14.7272 10.9362 14.8769L15.1897 19.1283L22.2442 10.14C22.2568 10.1243 22.2703 10.1093 22.2848 10.0953H22.2828Z" fill="black"/>
</svg>
