<svg width="32" height="31" viewBox="0 0 32 31" fill="none" xmlns="http://www.w3.org/2000/svg">
<path d="M22.6533 26.028L21.751 18.8038C21.6231 17.7805 21.1258 16.8392 20.3526 16.1569C19.5794 15.4746 18.5836 15.0982 17.5524 15.0986H14.445C13.4143 15.0989 12.4191 15.4756 11.6465 16.1578C10.8739 16.8401 10.377 17.781 10.2492 18.8038L9.34549 26.028C9.29589 26.4249 9.3313 26.8278 9.44937 27.2099C9.56743 27.5921 9.76545 27.9448 10.0303 28.2445C10.2951 28.5443 10.6207 28.7843 10.9854 28.9486C11.3501 29.1129 11.7455 29.1977 12.1455 29.1974H19.8547C20.2546 29.1975 20.6499 29.1125 21.0144 28.9481C21.3789 28.7838 21.7043 28.5437 21.969 28.244C22.2336 27.9443 22.4315 27.5917 22.5495 27.2096C22.6675 26.8275 22.7029 26.4248 22.6533 26.028V26.028Z" stroke="black" stroke-width="2" stroke-linecap="round" stroke-linejoin="round"/>
<path d="M16.0001 9.45925C18.3361 9.45925 20.2298 7.56558 20.2298 5.22962C20.2298 2.89367 18.3361 1 16.0001 1C13.6642 1 11.7705 2.89367 11.7705 5.22962C11.7705 7.56558 13.6642 9.45925 16.0001 9.45925Z" stroke="black" stroke-width="2"/>
<path d="M4.72112 13.6888C6.27842 13.6888 7.54086 12.4264 7.54086 10.8691C7.54086 9.31176 6.27842 8.04932 4.72112 8.04932C3.16381 8.04932 1.90137 9.31176 1.90137 10.8691C1.90137 12.4264 3.16381 13.6888 4.72112 13.6888Z" stroke="black" stroke-width="2"/>
<path d="M27.2787 13.6888C28.836 13.6888 30.0985 12.4264 30.0985 10.8691C30.0985 9.31176 28.836 8.04932 27.2787 8.04932C25.7214 8.04932 24.459 9.31176 24.459 10.8691C24.459 12.4264 25.7214 13.6888 27.2787 13.6888Z" stroke="black" stroke-width="2"/>
<path d="M27.279 17.9185H27.7104C28.3779 17.9184 29.0238 18.1551 29.5331 18.5865C30.0425 19.0179 30.3823 19.616 30.4921 20.2744L30.9616 23.0941C31.029 23.4981 31.0075 23.9119 30.8987 24.3068C30.79 24.7017 30.5965 25.0681 30.3318 25.3806C30.067 25.6931 29.7374 25.9442 29.3658 26.1164C28.9941 26.2886 28.5895 26.3778 28.1799 26.3777H23.0494M4.72101 17.9185H4.28958C3.6221 17.9184 2.97622 18.1551 2.46686 18.5865C1.95751 19.0179 1.6177 19.616 1.5079 20.2744L1.03841 23.0941C0.971039 23.4981 0.992481 23.9119 1.10125 24.3068C1.21002 24.7017 1.4035 25.0681 1.66824 25.3806C1.93298 25.6931 2.26263 25.9442 2.63424 26.1164C3.00586 26.2886 3.41052 26.3778 3.8201 26.3777H8.95063L4.72101 17.9185Z" stroke="black" stroke-width="2" stroke-linecap="round" stroke-linejoin="round"/>
</svg>
