<svg width="35" height="37" viewBox="0 0 35 37" fill="none" xmlns="http://www.w3.org/2000/svg">
<path d="M15.9215 18.0833C20.639 18.0833 24.4632 14.2591 24.4632 9.54167C24.4632 4.82423 20.639 1 15.9215 1C11.2041 1 7.37988 4.82423 7.37988 9.54167C7.37988 14.2591 11.2041 18.0833 15.9215 18.0833Z" stroke="black" stroke-width="2"/>
<path d="M22.7547 24.9167H33.0047M24.463 35.1667H4.41741C3.9329 35.1669 3.4539 35.0639 3.01221 34.8647C2.57053 34.6656 2.17625 34.3748 1.85555 34.0116C1.53485 33.6484 1.29507 33.2211 1.15211 32.7582C1.00915 32.2952 0.96629 31.8072 1.02637 31.3264L1.69262 25.9896C1.84756 24.7497 2.45012 23.6092 3.387 22.7824C4.32388 21.9556 5.53052 21.4996 6.78004 21.5001H7.37966L24.463 35.1667ZM27.8797 19.7917V30.0417V19.7917Z" stroke="black" stroke-width="2" stroke-linecap="round" stroke-linejoin="round"/>
</svg>
