<svg width="40" height="40" viewBox="0 0 40 40" fill="none" xmlns="http://www.w3.org/2000/svg">
<path d="M27.1875 16.75H21.25V10.8125C21.25 10.6406 21.1094 10.5 20.9375 10.5H19.0625C18.8906 10.5 18.75 10.6406 18.75 10.8125V16.75H12.8125C12.6406 16.75 12.5 16.8906 12.5 17.0625V18.9375C12.5 19.1094 12.6406 19.25 12.8125 19.25H18.75V25.1875C18.75 25.3594 18.8906 25.5 19.0625 25.5H20.9375C21.1094 25.5 21.25 25.3594 21.25 25.1875V19.25H27.1875C27.3594 19.25 27.5 19.1094 27.5 18.9375V17.0625C27.5 16.8906 27.3594 16.75 27.1875 16.75Z" fill="black"/>
<path d="M20 0.5C10.3359 0.5 2.5 8.33594 2.5 18C2.5 27.6641 10.3359 35.5 20 35.5C29.6641 35.5 37.5 27.6641 37.5 18C37.5 8.33594 29.6641 0.5 20 0.5ZM20 32.5312C11.9766 32.5312 5.46875 26.0234 5.46875 18C5.46875 9.97656 11.9766 3.46875 20 3.46875C28.0234 3.46875 34.5312 9.97656 34.5312 18C34.5312 26.0234 28.0234 32.5312 20 32.5312Z" fill="black"/>
</svg>
